<?xml version="1.0" standalone="no"?><svg xmlns="http://www.w3.org/2000/svg" viewBox="0 0 1440 320"><path fill="#0099ff" fill-opacity="1" d="M0,96L30,80C60,64,120,32,180,53.3C240,75,300,149,360,197.3C420,245,480,267,540,256C600,245,660,203,720,181.3C780,160,840,160,900,138.7C960,117,1020,75,1080,85.3C1140,96,1200,160,1260,186.7C1320,213,1380,203,1410,197.3L1440,192L1440,320L1410,320C1380,320,1320,320,1260,320C1200,320,1140,320,1080,320C1020,320,960,320,900,320C840,320,780,320,720,320C660,320,600,320,540,320C480,320,420,320,360,320C300,320,240,320,180,320C120,320,60,320,30,320L0,320Z"></path></svg>